<svg xmlns="http://www.w3.org/2000/svg" viewBox="0 0 undefined undefined" stroke="black" fill="none">
<path d="M147,23 L147,23 L167,30 L173,28 L189,34 L206,36 L220,49 L230,64 L231,78 L236,86 L235,99 L240,96 L239,115 L244,123 L242,153 L246,169 L240,171 L228,203 L226,228 L220,251 L224,264 L224,281 L217,346 L227,348 L264,312 L234,266 L229,253 L239,262 L263,299 L299,311 L299,319 L293,320 L272,312 L261,328 L266,336 L260,343 L261,349 L256,350 L258,339 L254,332 L249,338 L248,345 L229,352 L231,356 L238,352 L243,354 L239,359 L234,358 L225,372 L220,372 L213,379 L207,376 L206,379 L198,381 L191,378 L179,381 L157,377 L122,362 L82,330 L62,309 L55,295 L50,295 L49,309 L65,333 L87,347 L119,384 L127,386 L126,392 L120,391 L118,384 L109,385 L109,379 L82,351 L61,340 L49,318 L42,312 L41,300 L37,302 L31,319 L23,319 L20,323 L10,325 L16,330 L15,333 L10,331 L8,326 L0,327 L0,320 L9,318 L15,312 L24,315 L21,307 L36,296 L68,285 L70,267 L82,248 L86,248 L90,259 L88,279 L134,326 L160,345 L173,348 L209,348 L211,299 L207,289 L203,290 L203,295 L192,313 L184,319 L167,322 L162,327 L152,330 L142,327 L135,319 L146,321 L148,315 L155,319 L180,314 L201,290 L193,278 L193,273 L198,279 L202,278 L204,284 L214,276 L216,259 L214,256 L206,262 L206,257 L214,251 L214,244 L219,235 L223,201 L229,191 L229,174 L224,162 L216,120 L205,97 L194,95 L184,98 L167,89 L165,93 L173,97 L172,101 L168,101 L165,98 L158,99 L157,89 L162,83 L168,83 L181,90 L183,86 L177,82 L179,79 L186,87 L200,87 L223,97 L223,102 L217,107 L229,123 L225,126 L224,133 L230,139 L232,151 L234,133 L230,114 L230,90 L223,79 L221,69 L217,67 L215,54 L194,42 L150,35 L136,37 L106,49 L98,49 L76,69 L75,78 L65,86 L55,107 L57,111 L61,111 L61,115 L56,116 L55,120 L57,142 L64,145 L61,159 L67,168 L72,164 L73,135 L79,125 L78,117 L91,97 L95,98 L86,119 L87,134 L82,141 L83,167 L78,178 L79,206 L72,205 L74,213 L70,214 L69,220 L74,225 L77,215 L80,215 L84,234 L74,233 L63,213 L64,195 L68,189 L66,182 L61,182 L62,203 L55,188 L54,178 L58,173 L57,167 L52,165 L55,151 L47,142 L50,132 L47,114 L51,90 L59,81 L64,68 L74,61 L74,54 L80,45 L88,45 L95,41 L97,36 L111,37 L147,24 L167,31 L173,29 L189,35 L206,37 L219,49 L229,64 L230,78 L235,86 L234,99 L237,101 L239,97" stroke-width="2"/>
<path d="M147,25 L147,25 L167,32 L173,30 L189,36 L204,37 L218,49 L228,64 L229,78 L234,86 L233,99 L236,102 L239,100 L238,115 L243,123 L241,153 L245,168 L239,171 L227,203 L225,228 L219,251 L223,264 L223,281 L216,346 L210,345 L212,299 L207,288 L202,290 L201,297 L184,318 L167,321 L162,326 L152,329 L136,321 L146,322 L148,316 L154,320 L178,316 L190,306 L201,291 L200,297 L184,317 L167,320 L162,325 L152,328 L138,321 L146,323 L149,317 L154,321 L173,318" stroke-width="2"/>
<path d="M144,26 L144,26 L158,28 L167,33 L173,31 L189,37 L204,38 L217,49 L227,64 L228,78 L233,86 L232,99 L238,102 L237,115 L242,123 L240,153 L244,167 L238,171 L226,203 L224,228 L218,251 L222,264 L222,281 L215,346 L211,345 L212,293 L207,287 L202,289 L197,284 L194,274 L198,280 L202,279 L204,285 L215,276 L217,259 L214,255 L207,261 L207,257 L215,251 L215,244 L220,235 L224,201 L230,191 L230,174 L225,162 L217,120 L208,99 L196,94 L190,97 L176,95 L168,88 L164,93 L170,96 L171,100 L158,97 L160,86 L168,84 L177,91 L184,87 L199,88 L223,98 L216,107 L228,123 L224,126 L223,133 L230,142 L232,152 L235,146 L235,133 L231,114 L231,90 L224,79 L222,69 L218,66 L219,62 L214,52 L194,41 L150,34 L98,48 L75,69 L74,78 L64,86 L54,107 L60,112 L54,120 L56,142 L63,145 L60,159 L65,169 L73,164 L74,135 L80,125 L79,117 L88,102 L94,99 L85,119 L86,134 L81,141 L82,167 L77,178 L78,205 L71,205 L73,212 L69,214 L68,220 L74,226 L80,216 L83,233 L74,232 L68,221" stroke-width="2"/>
<path d="M143,27 L143,27 L158,29 L167,34 L173,32 L189,38 L204,39 L219,53 L219,57 L226,64 L227,78 L232,86 L231,96" stroke-width="2"/>
<path d="M141,28 L141,28 L158,30 L167,35 L173,33 L189,39 L204,40 L225,64 L226,78 L231,89" stroke-width="2"/>
<path d="M139,29 L139,29 L154,30 L166,35" stroke-width="2"/>
<path d="M134,30 L134,30 L159,33 L136,35 L96,48 L74,69 L74,76 L59,93 L60,96 L53,107 L59,113 L53,120 L55,142 L62,146 L59,159 L65,170 L74,164 L75,135 L81,125 L80,117 L93,99" stroke-width="2"/>
<path d="M127,31 L127,31 L154,32" stroke-width="2"/>
<path d="M125,32 L125,32 L149,33 L136,34 L96,47 L73,69 L73,76 L58,93 L59,96 L52,107 L56,113 L52,120 L54,142 L61,147 L58,159 L65,171 L75,164 L76,135 L82,125 L81,117 L91,102" stroke-width="2"/>
<path d="M124,33 L124,33 L142,33" stroke-width="2"/>
<path d="M123,34 L123,34 L135,34 L98,45 L91,50 L72,69 L72,76 L61,86 L51,107 L55,113 L51,117 L53,142 L60,149 L57,159 L65,172 L76,164 L77,135 L83,125 L82,117 L90,104" stroke-width="2"/>
<path d="M171,34 L171,34 L188,39" stroke-width="2"/>
<path d="M120,35 L120,35 L132,35" stroke-width="2"/>
<path d="M169,35 L169,35 L185,39" stroke-width="2"/>
<path d="M115,36 L115,36 L129,36" stroke-width="2"/>
<path d="M168,36 L168,36 L176,37" stroke-width="2"/>
<path d="M98,37 L98,37 L126,37" stroke-width="2"/>
<path d="M98,38 L98,38 L122,38" stroke-width="2"/>
<path d="M97,39 L97,39 L118,39 L96,45 L71,70 L67,70 L64,77 L67,78 L71,72" stroke-width="2"/>
<path d="M192,39 L192,39 L203,41 L217,55" stroke-width="2"/>
<path d="M97,40 L97,40 L108,41" stroke-width="2"/>
<path d="M191,40 L191,40 L201,41 L211,50 L197,42" stroke-width="2"/>
<path d="M96,41 L96,41 L106,42 L96,44 L65,71 L65,79 L71,76 L60,86 L50,107 L54,113 L50,117 L52,142 L59,149 L56,159 L65,173 L69,171 L67,181 L70,184 L73,181 L72,169 L77,164 L78,135 L84,125 L83,117 L89,110" stroke-width="2"/>
<path d="M94,42 L94,42 L105,42" stroke-width="2"/>
<path d="M201,42 L201,42 L208,48" stroke-width="2"/>
<path d="M91,43 L91,43 L97,43" stroke-width="2"/>
<path d="M90,44 L90,44 L95,44 L62,74 L65,80 L59,86 L50,106" stroke-width="2"/>
<path d="M89,45 L89,45 L93,45 L62,73" stroke-width="2"/>
<path d="M81,46 L81,46 L90,46 L65,68" stroke-width="2"/>
<path d="M80,47 L80,47 L88,47 L86,48" stroke-width="2"/>
<path d="M80,48 L80,48 L83,48 L82,53 L75,60 L75,54 L82,49 L76,58 L80,50" stroke-width="2"/>
<path d="M79,53 L79,53 L77,56 L78,54" stroke-width="2"/>
<path d="M218,58 L218,58 L224,64 L225,78 L230,87" stroke-width="2"/>
<path d="M218,59 L218,59 L223,64 L224,76" stroke-width="2"/>
<path d="M219,61 L219,61 L223,70" stroke-width="2"/>
<path d="M220,63 L220,63 L222,68" stroke-width="2"/>
<path d="M61,75 L61,75 L64,80 L58,86 L51,102 L53,88 L61,78 L63,80 L53,93 L53,98" stroke-width="2"/>
<path d="M61,79 L61,79 L53,92 L55,87" stroke-width="2"/>
<path d="M178,80 L178,80 L181,84" stroke-width="2"/>
<path d="M146,85 L146,85 L152,88 L155,98 L150,97 L149,92 L144,90 L137,102 L100,101 L106,93 L112,93 L116,97 L119,92 L136,91 L140,86 L151,88 L154,97 L144,89 L136,101 L101,100 L106,94 L116,98 L120,93 L136,92 L140,87 L148,87 L151,93" stroke-width="2"/>
<path d="M162,85 L162,85 L168,85 L177,92 L184,88 L199,89 L216,98 L220,97 L222,100 L215,107 L227,123 L223,126 L222,133 L228,140 L232,153 L236,146 L233,101 L237,104 L236,115 L241,123 L239,153 L242,166 L236,173 L225,203 L223,228 L217,251 L221,264 L221,281 L214,345 L213,293 L207,286 L202,288 L195,278" stroke-width="2"/>
<path d="M161,86 L161,86 L168,86 L177,93 L185,89 L199,90 L221,99 L214,107 L225,122 L221,133 L228,142 L228,150 L234,160 L237,133 L233,112 L236,105" stroke-width="2"/>
<path d="M161,87 L161,87 L169,88" stroke-width="2"/>
<path d="M140,88 L140,88 L148,88 L150,91 L147,89" stroke-width="2"/>
<path d="M160,88 L160,88 L166,88 L163,93 L171,99 L159,97 L159,89 L164,89 L164,96 L160,96 L160,90 L163,95 L161,94" stroke-width="2"/>
<path d="M140,89 L140,89 L143,89 L136,100 L102,99 L106,95 L115,98" stroke-width="2"/>
<path d="M139,90 L139,90 L135,99 L117,98 L121,94 L139,91 L132,99 L118,98 L121,95 L135,94 L132,98 L120,97 L122,96" stroke-width="2"/>
<path d="M185,90 L185,90 L199,91 L216,100 L219,99 L213,107 L223,122 L220,130" stroke-width="2"/>
<path d="M184,91 L184,91 L199,92 L217,100" stroke-width="2"/>
<path d="M175,92 L175,92 L195,93" stroke-width="2"/>
<path d="M183,93 L183,93 L191,95 L181,95 L190,95" stroke-width="2"/>
<path d="M197,93 L197,93 L201,95 L197,94" stroke-width="2"/>
<path d="M132,95 L132,95 L127,96" stroke-width="2"/>
<path d="M106,96 L106,96 L113,98 L104,98 L111,97" stroke-width="2"/>
<path d="M206,96 L206,96 L215,101 L212,107 L222,122 L220,128 L208,98 L214,101 L211,106 L210,99 L212,102" stroke-width="2"/>
<path d="M50,109 L50,109 L53,113 L49,119" stroke-width="2"/>
<path d="M49,110 L49,110 L52,113 L48,116 L49,111 L49,115 L50,113" stroke-width="2"/>
<path d="M235,110 L235,110 L240,123 L238,153 L241,166 L236,171 L231,185" stroke-width="2"/>
<path d="M88,113 L88,113 L84,120" stroke-width="2"/>
<path d="M235,116 L235,116 L239,123 L238,139" stroke-width="2"/>
<path d="M139,119 L139,119 L144,120 L145,131 L141,130 L142,123 L139,120 L143,121 L144,130 L142,124" stroke-width="2"/>
<path d="M218,119 L218,119 L220,124" stroke-width="2"/>
<path d="M235,119 L235,119 L238,123 L236,129" stroke-width="2"/>
<path d="M190,122 L190,122 L192,126 L190,124" stroke-width="2"/>
<path d="M51,124 L51,124 L51,142 L58,149 L55,159 L58,167 L67,174 L66,181 L70,185 L74,181 L73,169 L78,164 L79,135 L84,128 L85,134 L80,142" stroke-width="2"/>
<path d="M100,127 L100,127 L103,128 L106,142 L101,139 L100,128 L105,141 L102,139 L101,131" stroke-width="2"/>
<path d="M120,127 L120,127 L120,129" stroke-width="2"/>
<path d="M84,129 L84,129 L80,140" stroke-width="2"/>
<path d="M83,130 L83,130 L80,138" stroke-width="2"/>
<path d="M50,133 L50,133 L50,142 L57,149 L54,157 L57,166 L53,164 L55,154" stroke-width="2"/>
<path d="M82,133 L82,133 L80,136 L81,134" stroke-width="2"/>
<path d="M221,134 L221,134 L234,161 L237,147" stroke-width="2"/>
<path d="M49,135 L49,135 L49,141 L48,138" stroke-width="2"/>
<path d="M120,135 L120,135 L126,139 L113,141 L112,137 L116,136 L125,138 L114,139" stroke-width="2"/>
<path d="M221,135 L221,135 L226,142 L226,150 L234,162 L237,159 L237,152" stroke-width="2"/>
<path d="M129,136 L129,136 L130,137" stroke-width="2"/>
<path d="M166,136 L166,136 L170,138 L163,139 L169,137" stroke-width="2"/>
<path d="M221,136 L221,136 L225,142 L225,150 L234,163 L238,159 L238,154" stroke-width="2"/>
<path d="M103,137 L103,137 L104,140 L103,138" stroke-width="2"/>
<path d="M221,138 L221,138 L229,159 L234,164 L239,157" stroke-width="2"/>
<path d="M221,139 L221,139 L223,146" stroke-width="2"/>
<path d="M145,140 L145,140 L151,140 L149,143 L145,141 L150,141 L147,142" stroke-width="2"/>
<path d="M185,141 L185,141 L188,141 L190,146 L180,145 L157,150 L171,143 L188,142 L189,145 L172,145 L158,149 L171,144 L188,143 L186,144" stroke-width="2"/>
<path d="M207,143 L207,143 L215,162 L209,155 L207,144 L214,161 L208,147" stroke-width="2"/>
<path d="M126,144 L126,144 L131,144 L134,150 L124,148 L125,145 L131,145 L133,149 L125,146 L132,148 L127,147" stroke-width="2"/>
<path d="M52,145 L52,145 L56,152" stroke-width="2"/>
<path d="M81,145 L81,145 L81,167 L76,178 L77,204 L73,202 L70,205 L72,211 L67,219 L63,210 L65,195 L69,189 L67,183 L71,186 L75,181 L74,169 L79,164 L80,146" stroke-width="2"/>
<path d="M116,145 L116,145 L122,146 L121,149 L116,149 L116,146 L120,147" stroke-width="2"/>
<path d="M143,146 L143,146 L152,148 L150,151 L144,151 L142,147 L151,149 L144,149" stroke-width="2"/>
<path d="M80,148 L80,148 L80,167 L76,177" stroke-width="2"/>
<path d="M103,148 L103,148 L107,155 L102,157 L103,149 L106,152 L103,156 L104,152" stroke-width="2"/>
<path d="M225,152 L225,152 L235,166 L240,160 L240,166 L235,171 L231,183" stroke-width="2"/>
<path d="M226,156 L226,156 L235,167 L239,161 L239,166 L231,179" stroke-width="2"/>
<path d="M226,158 L226,158 L235,168 L238,165 L231,177" stroke-width="2"/>
<path d="M178,159 L178,159 L217,170 L219,176 L204,171 L185,170 L179,166 L171,167 L170,162 L180,160 L199,164 L217,171 L218,175 L204,170 L186,169 L179,165 L171,166 L171,163 L180,161 L199,165 L217,174 L172,163 L186,163 L209,171" stroke-width="2"/>
<path d="M226,160 L226,160 L234,168 L231,175" stroke-width="2"/>
<path d="M226,161 L226,161 L233,168 L230,173 L226,162" stroke-width="2"/>
<path d="M125,163 L125,163 L140,166 L138,170 L129,170 L128,174 L141,176 L153,182 L154,199 L151,199 L142,210 L138,231 L135,230 L134,213 L144,192 L143,188 L119,174 L108,175 L98,186 L106,190 L96,196 L94,205 L90,195 L91,182 L102,170 L122,164 L138,165 L138,169 L129,169 L126,173 L152,182 L153,198 L141,210 L137,230 L135,213 L145,192 L144,188 L138,182 L115,173 L106,175 L97,186 L99,189 L105,189" stroke-width="2"/>
<path d="M175,163 L175,163 L202,168" stroke-width="2"/>
<path d="M228,164 L228,164 L231,170 L228,165" stroke-width="2"/>
<path d="M79,165 L79,165 L76,173 L75,169 L78,166 L76,172" stroke-width="2"/>
<path d="M122,165 L122,165 L138,166 L129,168 L125,173 L132,178 L151,182 L152,197 L140,210 L137,226" stroke-width="2"/>
<path d="M183,165 L183,165 L199,168" stroke-width="2"/>
<path d="M119,166 L119,166 L137,167" stroke-width="2"/>
<path d="M115,167 L115,167 L133,167" stroke-width="2"/>
<path d="M58,168 L58,168 L65,175 L65,180 L60,182 L61,202" stroke-width="2"/>
<path d="M110,168 L110,168 L128,168 L124,172 L127,176" stroke-width="2"/>
<path d="M58,169 L58,169 L64,175 L59,182 L59,196" stroke-width="2"/>
<path d="M108,169 L108,169 L126,169 L123,172 L125,175 L119,172 L106,174 L96,186 L102,192 L95,196 L94,204 L91,195 L92,182 L99,174 L104,170 L124,170 L123,174" stroke-width="2"/>
<path d="M58,170 L58,170 L63,175 L58,182 L58,194" stroke-width="2"/>
<path d="M58,171 L58,171 L62,177 L57,182 L57,191" stroke-width="2"/>
<path d="M104,171 L104,171 L122,171 L120,172" stroke-width="2"/>
<path d="M58,172 L58,172 L61,177 L56,182 L56,188" stroke-width="2"/>
<path d="M102,172 L102,172 L114,172" stroke-width="2"/>
<path d="M101,173 L101,173 L107,173" stroke-width="2"/>
<path d="M59,174 L59,174 L60,177 L55,183" stroke-width="2"/>
<path d="M100,174 L100,174 L105,174 L95,187 L101,192 L93,198 L93,182 L103,175 L94,186 L98,192 L93,195 L94,188 L97,191 L94,194 L96,191" stroke-width="2"/>
<path d="M58,175 L58,175 L55,181 L57,177" stroke-width="2"/>
<path d="M170,175 L170,175 L174,175 L174,181 L166,186 L167,198 L163,191 L163,179 L173,176 L173,181 L165,186 L166,197" stroke-width="2"/>
<path d="M100,176 L100,176 L94,185 L99,177 L95,183 L97,180" stroke-width="2"/>
<path d="M129,177 L129,177 L150,183 L151,188 L151,196 L139,210 L136,222" stroke-width="2"/>
<path d="M168,177 L168,177 L172,177 L172,181 L164,186 L165,195" stroke-width="2"/>
<path d="M166,178 L166,178 L171,178 L164,185 L164,179 L170,179 L165,183 L166,181" stroke-width="2"/>
<path d="M76,179 L76,179 L76,202 L73,201 L69,205 L67,217" stroke-width="2"/>
<path d="M185,179 L185,179 L206,180 L210,182 L210,187 L202,194 L205,186 L202,182 L200,181 L194,189 L190,189 L183,182 L180,188 L186,195 L180,196 L176,186 L180,180 L206,181 L209,186 L203,193 L206,186 L203,182 L208,183 L204,190" stroke-width="2"/>
<path d="M133,180 L133,180 L141,180 L149,184 L150,188 L150,196 L138,210 L136,219" stroke-width="2"/>
<path d="M136,181 L136,181 L147,184 L149,188 L149,196 L137,211" stroke-width="2"/>
<path d="M180,181 L180,181 L199,181 L194,188 L190,188 L186,182 L197,182 L194,187 L190,187 L188,183 L196,183 L194,186 L189,184 L194,184 L191,185" stroke-width="2"/>
<path d="M75,182 L75,182 L75,201 L68,205 L69,211 L66,215" stroke-width="2"/>
<path d="M139,182 L139,182 L147,185 L148,196 L138,208" stroke-width="2"/>
<path d="M140,183 L140,183 L147,188 L147,196 L140,204" stroke-width="2"/>
<path d="M177,183 L177,183 L180,183 L179,188 L185,195 L180,195 L177,184 L178,186" stroke-width="2"/>
<path d="M205,183 L205,183 L206,187" stroke-width="2"/>
<path d="M74,184 L74,184 L73,199 L67,205 L68,211 L65,213 L66,195 L70,189 L68,185" stroke-width="2"/>
<path d="M111,184 L111,184 L123,184 L124,189 L120,194 L115,194 L108,186 L123,185 L120,193 L115,193 L109,187 L122,186 L120,192 L115,192 L110,187 L121,187 L120,191 L112,188 L119,189" stroke-width="2"/>
<path d="M141,184 L141,184 L146,188 L146,196 L142,200" stroke-width="2"/>
<path d="M72,186 L72,186 L72,199 L67,204 L67,195 L71,188" stroke-width="2"/>
<path d="M143,186 L143,186 L145,191" stroke-width="2"/>
<path d="M133,189 L133,189 L136,190 L134,191" stroke-width="2"/>
<path d="M71,190 L71,190 L71,199 L68,202 L70,191" stroke-width="2"/>
<path d="M181,191 L181,191 L184,194 L182,193" stroke-width="2"/>
<path d="M70,193 L70,193 L69,200 L69,195" stroke-width="2"/>
<path d="M145,193 L145,193 L143,198" stroke-width="2"/>
<path d="M229,194 L229,194 L226,198" stroke-width="2"/>
<path d="M108,197 L108,197 L116,199 L116,202 L113,205 L106,205 L107,198 L115,200 L113,204 L107,204 L108,199 L114,200 L113,203 L108,203 L109,200 L112,201" stroke-width="2"/>
<path d="M242,199 L242,199 L243,211 L239,209 L243,200 L242,210 L241,204" stroke-width="2"/>
<path d="M156,203 L156,203 L159,207 L159,218 L156,217 L156,204 L158,217 L157,207" stroke-width="2"/>
<path d="M168,204 L168,204 L173,207 L175,227 L180,233 L177,242 L173,239 L167,221 L168,205 L172,208 L174,227 L179,233 L177,241 L168,221 L168,206 L174,219 L173,227 L178,233 L177,240 L169,221 L169,207 L172,224 L170,217 L172,221 L171,219" stroke-width="2"/>
<path d="M66,206 L66,206 L66,212 L65,207" stroke-width="2"/>
<path d="M224,206 L224,206 L221,232" stroke-width="2"/>
<path d="M79,217 L79,217 L82,232 L74,231 L70,226 L74,227 L78,222" stroke-width="2"/>
<path d="M111,218 L111,218 L122,219 L120,224 L112,223 L111,219 L121,219 L119,223 L112,220 L120,220 L116,222" stroke-width="2"/>
<path d="M94,221 L94,221 L99,222 L94,228 L94,222 L98,222 L95,227 L96,224" stroke-width="2"/>
<path d="M236,221 L236,221 L238,223 L234,226 L236,223" stroke-width="2"/>
<path d="M78,224 L78,224 L80,231 L72,227 L78,225 L79,230 L74,229 L77,226 L76,228" stroke-width="2"/>
<path d="M154,224 L154,224 L160,224 L162,228 L161,241 L157,239 L153,225 L159,225 L161,228 L160,240 L154,226 L160,228 L159,239 L159,232 L155,227 L158,227 L159,231" stroke-width="2"/>
<path d="M174,230 L174,230 L177,239 L174,231" stroke-width="2"/>
<path d="M146,231 L146,231 L149,232 L149,236 L146,236 L145,232 L148,232 L147,234" stroke-width="2"/>
<path d="M103,233 L103,233 L111,233 L113,238 L103,236 L111,234 L112,238 L104,236 L111,235 L105,236" stroke-width="2"/>
<path d="M137,234 L137,234 L140,234 L139,241 L142,245 L151,244 L162,254 L176,250 L184,255 L194,255 L196,267 L178,262 L172,264 L168,259 L166,266 L162,267 L160,263 L167,258 L165,256 L155,257 L151,266 L134,267 L131,273 L124,274 L121,271 L123,261 L127,265 L133,259 L148,256 L143,248 L133,247 L137,235 L142,246 L151,245 L162,255 L173,251 L184,256 L192,255 L195,266 L178,261 L172,263 L168,258 L164,266 L161,263 L165,260 L164,265 L164,261 L163,263" stroke-width="2"/>
<path d="M93,235 L93,235 L114,261 L113,268 L110,268 L105,260 L101,263 L114,285 L117,288 L117,283 L125,276 L129,278 L122,290 L121,300 L134,300 L134,287 L138,286 L148,309 L141,310 L143,303 L140,301 L126,303 L131,316 L121,308 L96,267 L98,252 L94,247 L93,236 L113,261 L113,267 L105,259 L100,263 L113,285 L117,289 L118,284 L125,277 L128,278 L119,296 L130,315 L119,304 L97,267 L99,252 L95,247 L94,237 L112,261 L112,266 L105,258 L99,263 L112,285 L117,290 L119,284 L127,278 L118,296 L129,314 L105,282 L98,267 L100,252 L95,239 L111,261 L104,257 L99,262" stroke-width="2"/>
<path d="M138,236 L138,236 L137,241 L142,247 L151,246 L164,256" stroke-width="2"/>
<path d="M84,238 L84,238 L89,239 L87,243 L84,239 L88,240 L86,241" stroke-width="2"/>
<path d="M137,238 L137,238 L136,241 L141,247 L134,247 L135,241 L139,246 L135,246 L135,243 L136,245" stroke-width="2"/>
<path d="M219,239 L219,239 L216,255 L220,264 L220,281 L213,331 L214,344 L213,341" stroke-width="2"/>
<path d="M218,241 L218,241 L216,250" stroke-width="2"/>
<path d="M97,244 L97,244 L110,261" stroke-width="2"/>
<path d="M146,246 L146,246 L161,256 L155,256 L151,265 L134,266 L132,271 L127,273 L122,271 L123,262 L127,266 L133,260 L146,259 L149,256 L144,247 L151,248 L159,255 L151,259 L151,264 L134,265 L131,271 L123,271 L124,264 L127,267 L133,261 L146,260 L150,256 L145,248 L157,254 L150,259 L150,263 L134,264 L130,270 L124,271 L124,267 L127,268 L133,262 L146,261 L151,256 L147,249 L154,253 L149,262 L134,263 L125,270 L125,267 L127,269 L133,263" stroke-width="2"/>
<path d="M83,249 L83,249 L86,250 L89,259 L87,279 L134,327 L160,346 L173,349 L209,349 L207,355 L198,352 L193,358 L187,353 L171,355 L166,351 L163,354 L156,352 L151,355 L152,345 L144,337 L135,332 L115,328 L106,320 L74,274 L65,296 L66,301 L74,307 L89,327 L95,329 L101,338 L128,359 L153,370 L188,376 L192,371 L199,376 L204,370 L209,373 L227,361 L218,348 L227,349 L265,312 L230,254 L263,300 L298,312 L298,318 L293,319 L272,311 L260,328 L265,338 L260,341 L260,348 L257,349 L258,344" stroke-width="2"/>
<path d="M82,250 L82,250 L85,250 L88,259 L86,279 L134,328 L160,347 L173,350 L208,350 L207,354 L200,352 L206,352" stroke-width="2"/>
<path d="M81,251 L81,251 L84,251 L87,259 L85,279 L134,329 L160,348 L197,352 L192,357 L187,352 L171,354 L166,350 L152,354 L153,345 L144,336 L135,331 L115,327 L107,320 L74,273 L64,296 L65,301 L89,328 L128,360 L153,371 L188,377 L192,372 L200,377 L204,371 L209,374 L218,366 L224,365 L228,360 L219,349 L227,350 L266,312 L231,255" stroke-width="2"/>
<path d="M100,251 L100,251 L104,256 L101,259 L101,254 L102,256" stroke-width="2"/>
<path d="M150,251 L150,251 L152,254" stroke-width="2"/>
<path d="M81,252 L81,252 L86,259 L84,279 L136,331" stroke-width="2"/>
<path d="M173,252 L173,252 L184,257 L192,256 L194,265 L178,260 L172,262 L167,256 L171,253 L184,258 L191,257 L193,264 L178,259 L172,261 L168,256 L171,254 L184,259 L190,258 L192,263 L178,258 L173,260 L169,256 L176,255 L189,260" stroke-width="2"/>
<path d="M80,253 L80,253 L85,259 L83,279 L133,330 L115,326 L91,299 L74,272 L70,276 L70,283" stroke-width="2"/>
<path d="M214,253 L214,253 L208,260 L210,255 L209,257" stroke-width="2"/>
<path d="M79,254 L79,254 L84,259 L82,279 L131,329 L125,329 L111,321 L91,297 L80,277 L74,271 L70,275 L71,267 L78,255 L81,255 L83,262 L80,276 L74,270 L71,271 L81,256 L79,274 L74,269 L72,271" stroke-width="2"/>
<path d="M171,256 L171,256 L177,257 L171,257 L176,257 L173,258" stroke-width="2"/>
<path d="M79,257 L79,257 L81,262 L78,272 L73,267 L79,258 L77,270 L74,267 L79,259 L77,269 L77,264" stroke-width="2"/>
<path d="M233,257 L233,257 L252,283 L256,293" stroke-width="2"/>
<path d="M218,260 L218,260 L219,281 L214,323" stroke-width="2"/>
<path d="M234,260 L234,260 L253,289" stroke-width="2"/>
<path d="M99,264 L99,264 L117,291 L126,279" stroke-width="2"/>
<path d="M218,264 L218,264 L215,311" stroke-width="2"/>
<path d="M217,267 L217,267 L215,308" stroke-width="2"/>
<path d="M100,269 L100,269 L103,274" stroke-width="2"/>
<path d="M172,270 L172,270 L180,270 L180,273 L138,274 L148,271 L179,271 L165,274 L139,273 L172,272" stroke-width="2"/>
<path d="M216,270 L216,270 L214,298" stroke-width="2"/>
<path d="M241,271 L241,271 L245,277" stroke-width="2"/>
<path d="M148,273 L148,273 L156,273" stroke-width="2"/>
<path d="M104,276 L104,276 L117,292 L123,283 L122,285" stroke-width="2"/>
<path d="M104,277 L104,277 L117,293 L119,291 L118,299" stroke-width="2"/>
<path d="M215,277 L215,277 L213,292 L208,285 L214,278" stroke-width="2"/>
<path d="M81,278 L81,278 L129,328 L111,320 L83,282" stroke-width="2"/>
<path d="M246,279 L246,279 L251,287" stroke-width="2"/>
<path d="M106,280 L106,280 L108,284 L107,282" stroke-width="2"/>
<path d="M200,280 L200,280 L203,286 L198,281 L202,285" stroke-width="2"/>
<path d="M214,280 L214,280 L213,290 L209,286 L213,281" stroke-width="2"/>
<path d="M212,283 L212,283 L212,288 L211,286" stroke-width="2"/>
<path d="M148,284 L148,284 L175,284 L161,295 L147,290 L146,285 L174,285 L161,294 L147,289 L147,286 L172,286 L161,293 L148,287 L153,288" stroke-width="2"/>
<path d="M69,285 L69,285 L63,296 L64,301 L89,329 L117,353 L150,371 L188,378 L193,374 L200,378 L204,372 L209,375 L229,361 L220,349 L227,351 L267,312 L257,295" stroke-width="2"/>
<path d="M67,286 L67,286 L62,296 L63,301 L89,330 L117,354 L150,372 L187,379 L162,376" stroke-width="2"/>
<path d="M109,286 L109,286 L118,293" stroke-width="2"/>
<path d="M187,286 L187,286 L190,286 L189,292 L181,296 L183,289 L189,287 L188,292 L182,295 L188,288 L183,294 L187,289 L185,292" stroke-width="2"/>
<path d="M63,287 L63,287 L66,287 L61,296 L62,301 L89,331 L128,363 L160,375 L154,375" stroke-width="2"/>
<path d="M135,287 L135,287 L138,288 L147,308 L142,309 L144,303 L140,300 L128,301 L133,300" stroke-width="2"/>
<path d="M161,287 L161,287 L169,287 L161,292 L155,289 L166,288 L157,290 L164,289" stroke-width="2"/>
<path d="M60,288 L60,288 L64,288 L60,296 L61,301 L78,321 L126,362 L105,349 L82,329 L61,306 L54,293 L47,298 L49,311 L64,333 L85,347 L117,383 L110,384 L110,379 L82,350 L69,341 L62,340 L50,318 L43,312 L41,299 L36,302 L30,318 L23,318 L20,322 L9,325 L15,332 L10,328 L13,331" stroke-width="2"/>
<path d="M135,288 L135,288 L141,300" stroke-width="2"/>
<path d="M55,289 L55,289 L63,289 L59,296 L60,301 L89,333 L114,354" stroke-width="2"/>
<path d="M88,289 L88,289 L127,327 L111,319 L90,292" stroke-width="2"/>
<path d="M111,289 L111,289 L117,297" stroke-width="2"/>
<path d="M135,289 L135,289 L139,296 L136,300 L135,290" stroke-width="2"/>
<path d="M51,290 L51,290 L61,290 L59,301 L99,343" stroke-width="2"/>
<path d="M48,291 L48,291 L60,291 L57,296 L52,292 L46,298 L47,309 L57,325 L66,336 L85,348 L116,382 L111,383 L111,379 L82,349 L61,337 L51,318 L44,312 L44,301 L41,298 L35,302 L30,317 L13,321 L5,327 L1,326 L1,321 L9,319 L15,313 L24,316 L24,305 L46,292 L51,292" stroke-width="2"/>
<path d="M55,292 L55,292 L58,292 L56,293" stroke-width="2"/>
<path d="M46,293 L46,293 L49,293 L45,298 L45,306 L56,325 L66,337 L85,349 L95,362 L93,360" stroke-width="2"/>
<path d="M200,293 L200,293 L189,312 L176,317" stroke-width="2"/>
<path d="M45,294 L45,294 L44,300 L38,298 L29,316 L25,317 L27,313 L23,307 L45,295 L43,297" stroke-width="2"/>
<path d="M137,294 L137,294 L138,298 L137,296" stroke-width="2"/>
<path d="M199,294 L199,294 L189,310 L181,315 L187,310" stroke-width="2"/>
<path d="M198,295 L198,295 L193,302" stroke-width="2"/>
<path d="M94,296 L94,296 L125,326" stroke-width="2"/>
<path d="M94,297 L94,297 L120,323 L111,318 L99,303" stroke-width="2"/>
<path d="M260,298 L260,298 L269,304 L297,313 L297,317 L293,318 L272,310 L259,328 L264,336 L259,342" stroke-width="2"/>
<path d="M36,299 L36,299 L27,315" stroke-width="2"/>
<path d="M176,300 L176,300 L182,304 L176,301 L181,303 L179,302" stroke-width="2"/>
<path d="M33,301 L33,301 L28,313 L24,307 L31,303 L28,312 L25,308 L30,304" stroke-width="2"/>
<path d="M262,301 L262,301 L293,312 L296,317 L272,309 L258,328 L263,336 L259,340 L254,331 L248,338 L248,344 L231,349 L228,352 L231,357 L238,353 L242,354 L239,358 L234,357 L225,371 L220,371 L213,378 L207,375 L205,378 L195,380 L191,377 L193,375 L198,379 L192,377 L196,378" stroke-width="2"/>
<path d="M59,302 L59,302 L82,328" stroke-width="2"/>
<path d="M120,302 L120,302 L123,306 L121,304" stroke-width="2"/>
<path d="M144,302 L144,302 L146,308 L143,308 L145,304" stroke-width="2"/>
<path d="M161,303 L161,303 L164,303 L166,308 L161,308 L160,304 L165,307 L162,306" stroke-width="2"/>
<path d="M264,303 L264,303 L295,316 L288,313" stroke-width="2"/>
<path d="M265,305 L265,305 L273,308" stroke-width="2"/>
<path d="M29,306 L29,306 L28,310 L27,308" stroke-width="2"/>
<path d="M62,306 L62,306 L68,312" stroke-width="2"/>
<path d="M266,306 L266,306 L271,309 L257,328 L262,336 L259,338 L254,330 L247,338 L246,344 L231,348 L227,352 L232,358 L230,360 L228,356 L230,359" stroke-width="2"/>
<path d="M45,307 L45,307 L53,320" stroke-width="2"/>
<path d="M267,308 L267,308 L268,309" stroke-width="2"/>
<path d="M277,309 L277,309 L286,312" stroke-width="2"/>
<path d="M45,310 L45,310 L50,316" stroke-width="2"/>
<path d="M106,310 L106,310 L118,322" stroke-width="2"/>
<path d="M279,311 L279,311 L284,312" stroke-width="2"/>
<path d="M107,312 L107,312 L116,321" stroke-width="2"/>
<path d="M15,314 L15,314 L22,317 L5,326 L2,325 L2,322 L14,315 L20,318 L3,324 L14,316 L19,318 L12,319" stroke-width="2"/>
<path d="M200,316 L200,316 L201,336 L197,338 L201,317 L198,337 L199,326" stroke-width="2"/>
<path d="M264,316 L264,316 L256,330 L254,329 L246,338 L246,343 L232,347 L261,320" stroke-width="2"/>
<path d="M150,318 L150,318 L154,322 L170,318 L152,327 L143,324 L150,319 L154,323 L165,320 L152,326 L147,325 L150,321 L154,324 L148,325 L151,323" stroke-width="2"/>
<path d="M36,320 L36,320 L41,323 L40,330 L35,327 L38,321 L40,329 L36,327 L38,322 L39,328 L38,323" stroke-width="2"/>
<path d="M54,323 L54,323 L66,338 L78,346 L70,340" stroke-width="2"/>
<path d="M257,325 L257,325 L245,338 L245,342 L235,345" stroke-width="2"/>
<path d="M55,326 L55,326 L65,338 L63,337" stroke-width="2"/>
<path d="M181,326 L181,326 L184,326 L183,330 L174,338 L166,338 L163,334 L164,330 L174,332 L183,327 L174,337 L166,337 L164,334 L164,331 L174,333 L182,328 L174,336 L166,336 L165,332 L174,334 L178,330" stroke-width="2"/>
<path d="M199,328 L199,328 L199,336" stroke-width="2"/>
<path d="M20,329 L20,329 L21,331" stroke-width="2"/>
<path d="M288,331 L288,331 L294,333 L291,336 L288,332 L293,333 L289,333 L291,334" stroke-width="2"/>
<path d="M166,333 L166,333 L173,335" stroke-width="2"/>
<path d="M248,334 L248,334 L243,342 L238,343 L243,339 L242,341" stroke-width="2"/>
<path d="M259,334 L259,334 L261,336 L259,335" stroke-width="2"/>
<path d="M278,334 L278,334 L281,336 L274,338 L276,335 L280,336 L275,337 L279,336" stroke-width="2"/>
<path d="M147,338 L147,338 L164,350 L156,350 L153,353 L154,345 L151,342" stroke-width="2"/>
<path d="M0,339 L0,339 L3,341 L0,346 L1,341" stroke-width="2"/>
<path d="M9,341 L9,341 L12,341 L12,344 L10,343" stroke-width="2"/>
<path d="M131,341 L131,341 L132,342" stroke-width="2"/>
<path d="M21,343 L21,343 L26,344 L28,348 L24,349 L21,344 L27,348 L22,345 L26,347 L24,346" stroke-width="2"/>
<path d="M102,345 L102,345 L107,349" stroke-width="2"/>
<path d="M44,346 L44,346 L49,347 L45,348" stroke-width="2"/>
<path d="M154,346 L154,346 L163,350 L154,351 L154,347 L159,350" stroke-width="2"/>
<path d="M133,347 L133,347 L136,347 L135,351 L134,349" stroke-width="2"/>
<path d="M83,349 L83,349 L91,357" stroke-width="2"/>
<path d="M289,349 L289,349 L293,350 L290,351" stroke-width="2"/>
<path d="M223,350 L223,350 L225,352" stroke-width="2"/>
<path d="M168,351 L168,351 L178,352 L169,352" stroke-width="2"/>
<path d="M281,351 L281,351 L284,351 L284,354 L282,353" stroke-width="2"/>
<path d="M188,352 L188,352 L195,352 L192,356 L189,353 L193,353 L191,354" stroke-width="2"/>
<path d="M254,353 L254,353 L256,357 L254,355" stroke-width="2"/>
<path d="M238,354 L238,354 L241,354 L235,357 L239,355 L237,356" stroke-width="2"/>
<path d="M21,356 L21,356 L22,357" stroke-width="2"/>
<path d="M9,357 L9,357 L13,357 L14,362 L10,362 L9,358 L13,359 L11,360" stroke-width="2"/>
<path d="M266,358 L266,358 L269,358 L267,363 L264,360 L268,359 L266,361" stroke-width="2"/>
<path d="M43,361 L43,361 L43,367 L39,363 L44,362 L42,366 L40,364 L43,363 L41,364" stroke-width="2"/>
<path d="M68,361 L68,361 L73,362 L69,363" stroke-width="2"/>
<path d="M228,363 L228,363 L224,370 L220,370 L212,377 L207,374 L201,378 L206,373 L204,376" stroke-width="2"/>
<path d="M227,364 L227,364 L224,369 L210,376 L213,373" stroke-width="2"/>
<path d="M53,365 L53,365 L56,365 L54,371 L51,370 L52,366 L55,366 L53,369" stroke-width="2"/>
<path d="M226,365 L226,365 L216,371" stroke-width="2"/>
<path d="M0,366 L0,366 L1,369 L0,367" stroke-width="2"/>
<path d="M100,366 L100,366 L105,372 L100,367 L102,368" stroke-width="2"/>
<path d="M61,367 L61,367 L64,367 L61,369" stroke-width="2"/>
<path d="M245,367 L245,367 L246,368" stroke-width="2"/>
<path d="M29,368 L29,368 L30,369" stroke-width="2"/>
<path d="M6,371 L6,371 L9,376 L7,373" stroke-width="2"/>
<path d="M92,371 L92,371 L94,374 L92,373" stroke-width="2"/>
<path d="M283,372 L283,372 L289,374 L284,377 L283,373 L288,375 L285,375" stroke-width="2"/>
<path d="M69,375 L69,375 L70,376" stroke-width="2"/>
<path d="M165,376 L165,376 L171,377" stroke-width="2"/>
<path d="M242,376 L242,376 L243,380 L242,378" stroke-width="2"/>
<path d="M254,376 L254,376 L259,376 L258,380 L254,380 L254,377 L257,378" stroke-width="2"/>
<path d="M292,376 L292,376 L295,376 L294,380 L293,378" stroke-width="2"/>
<path d="M176,378 L176,378 L185,379" stroke-width="2"/>
<path d="M25,379 L25,379 L28,379 L27,383 L26,381" stroke-width="2"/>
<path d="M112,379 L112,379 L112,382 L113,380" stroke-width="2"/>
<path d="M78,381 L78,381 L80,385 L74,386 L74,383 L78,383" stroke-width="2"/>
<path d="M231,383 L231,383 L235,390 L225,394 L231,384 L234,390 L226,393 L231,386 L233,390 L227,392" stroke-width="2"/>
<path d="M256,384 L256,384 L260,385 L261,391 L256,390 L255,386 L258,385 L260,390 L256,389 L256,386 L258,388" stroke-width="2"/>
<path d="M120,385 L120,385 L126,387 L125,391 L122,391 L120,386 L125,389 L122,390 L121,387 L123,388" stroke-width="2"/>
<path d="M20,387 L20,387 L23,387 L23,390 L21,389" stroke-width="2"/>
<path d="M231,387 L231,387 L231,388" stroke-width="2"/>
<path d="M249,387 L249,387 L250,388" stroke-width="2"/>
<path d="M8,388 L8,388 L12,389 L8,389 L10,390" stroke-width="2"/>
<path d="M82,389 L82,389 L83,390" stroke-width="2"/>
<path d="M29,390 L29,390 L33,393 L29,392" stroke-width="2"/>
<path d="M274,390 L274,390 L280,395 L274,395 L273,391 L279,394 L275,393" stroke-width="2"/>
<path d="M131,391 L131,391 L132,392" stroke-width="2"/>
<path d="M40,392 L40,392 L41,393" stroke-width="2"/>
<path d="M56,392 L56,392 L57,399 L54,398 L56,394" stroke-width="2"/>
<path d="M0,393 L0,393 L1,395" stroke-width="2"/>
<path d="M141,393 L141,393 L154,395 L154,400 L141,400 L141,394 L150,394 L153,399 L142,399 L141,395 L150,395 L152,398 L142,397 L145,396" stroke-width="2"/>
<path d="M190,394 L190,394 L195,396 L188,397 L194,395" stroke-width="2"/>
<path d="M164,395 L164,395 L172,396 L169,402 L164,396 L171,397 L169,401 L165,397 L170,397 L169,400 L166,398 L168,399" stroke-width="2"/>
<path d="M90,396 L90,396 L94,397 L95,402 L91,401 L90,397 L93,397 L94,401 L92,399" stroke-width="2"/>
<path d="M148,396 L148,396 L149,397" stroke-width="2"/>
<path d="M294,397 L294,397 L298,398" stroke-width="2"/>
<path d="M65,398 L65,398 L67,401 L63,403 L65,400" stroke-width="2"/>
<path d="M112,400 L112,400 L113,403" stroke-width="2"/>
<path d="M192,400 L192,400 L195,401" stroke-width="2"/>
<path d="M206,403 L206,403 L209,406 L205,408 L205,404 L208,404 L207,406" stroke-width="2"/>
<path d="M128,405 L128,405 L129,406" stroke-width="2"/>
<path d="M72,406 L72,406 L75,406 L75,409 L73,408" stroke-width="2"/>
<path d="M101,406 L101,406 L102,407" stroke-width="2"/>
<path d="M32,407 L32,407 L34,408" stroke-width="2"/>
<path d="M117,408 L117,408 L120,408 L120,411 L118,410" stroke-width="2"/>
<path d="M264,409 L264,409 L266,410" stroke-width="2"/>
<path d="M142,410 L142,410 L147,410 L146,414 L142,413 L145,412" stroke-width="2"/>
<path d="M243,410 L243,410 L246,410 L246,413 L241,414 L241,411 L244,412" stroke-width="2"/>
<path d="M290,410 L290,410 L293,410 L290,412" stroke-width="2"/>
<path d="M104,411 L104,411 L109,417 L104,415 L105,412 L108,416" stroke-width="2"/>
<path d="M23,412 L23,412 L27,415 L26,427 L22,425 L23,413 L26,415 L26,426 L23,425 L24,414 L25,425 L24,420" stroke-width="2"/>
<path d="M3,417 L3,417 L5,422 L2,422 L3,419" stroke-width="2"/>
<path d="M256,417 L256,417 L258,418" stroke-width="2"/>
<path d="M275,417 L275,417 L276,419" stroke-width="2"/>
<path d="M135,418 L135,418 L138,418 L139,422 L135,421 L137,420" stroke-width="2"/>
<path d="M177,418 L177,418 L180,418 L180,422 L176,422 L176,419 L178,420" stroke-width="2"/>
<path d="M191,418 L191,418 L195,418 L195,421 L192,420" stroke-width="2"/>
<path d="M286,419 L286,419 L288,421 L283,423 L287,420 L285,421" stroke-width="2"/>
<path d="M94,420 L94,420 L98,420 L97,426 L93,425 L93,422 L97,421 L96,425 L95,423" stroke-width="2"/>
<path d="M39,421 L39,421 L42,422" stroke-width="2"/>
<path d="M246,421 L246,421 L249,423 L242,426 L241,422 L248,422 L246,425 L242,423 L247,423 L243,424" stroke-width="2"/>
<path d="M115,423 L115,423 L119,424 L120,432 L113,430 L115,424 L118,424 L119,431 L114,429 L117,425 L118,430" stroke-width="2"/>
<path d="M166,424 L166,424 L169,425" stroke-width="2"/>
<path d="M173,424 L173,424 L173,426" stroke-width="2"/>
<path d="M268,424 L268,424 L272,425 L268,428 L268,425 L270,426" stroke-width="2"/>
<path d="M4,426 L4,426 L5,427" stroke-width="2"/>
<path d="M115,426 L115,426 L115,427" stroke-width="2"/>
<path d="M200,427 L200,427 L205,433 L200,434 L199,428 L204,431 L200,433 L200,429 L202,431" stroke-width="2"/>
<path d="M223,427 L223,427 L223,435 L216,429 L224,428 L222,434 L217,430 L223,429 L222,433 L218,431 L221,431" stroke-width="2"/>
<path d="M183,428 L183,428 L189,429 L189,432 L181,433 L182,429 L188,430 L183,431" stroke-width="2"/>
<path d="M47,430 L47,430 L48,431" stroke-width="2"/>
<path d="M151,431 L151,431 L157,432 L156,436 L151,432 L155,434" stroke-width="2"/>
<path d="M107,432 L107,432 L111,432 L108,434" stroke-width="2"/>
<path d="M22,433 L22,433 L26,433 L20,437 L20,434 L25,434 L22,435" stroke-width="2"/>
<path d="M77,434 L77,434 L79,438 L73,440 L74,436 L78,435 L74,439 L76,437" stroke-width="2"/>
<path d="M163,434 L163,434 L166,434 L166,437 L164,436" stroke-width="2"/>
<path d="M265,434 L265,434 L269,434 L269,438 L265,437 L267,436" stroke-width="2"/>
<path d="M13,435 L13,435 L14,436" stroke-width="2"/>
<path d="M251,435 L251,435 L253,436" stroke-width="2"/>
<path d="M174,437 L174,437 L178,437 L178,446 L175,445 L174,438 L177,438 L177,444" stroke-width="2"/>
<path d="M127,438 L127,438 L129,443 L119,446 L127,439 L128,442 L120,445" stroke-width="2"/>
<path d="M206,440 L206,440 L213,442 L211,449 L211,445 L206,441 L212,442 L212,448" stroke-width="2"/>
<path d="M291,441 L291,441 L292,442" stroke-width="2"/>
<path d="M21,442 L21,442 L21,449 L17,449 L22,443 L18,448 L21,444 L20,447" stroke-width="2"/>
<path d="M137,442 L137,442 L143,446 L135,446 L136,443 L142,445 L136,445 L140,444" stroke-width="2"/>
<path d="M245,442 L245,442 L248,442 L250,447 L245,443 L248,445" stroke-width="2"/>
<path d="M232,445 L232,445 L235,449 L232,449 L233,447" stroke-width="2"/>
<path d="M89,446 L89,446 L93,446 L94,449 L90,448" stroke-width="2"/>
<path d="M31,447 L31,447 L35,449 L30,449 L34,448" stroke-width="2"/>
<path d="M261,447 L261,447 L264,449 L260,449 L263,448" stroke-width="2"/>
<path d="M133,448 L133,448 L133,449" stroke-width="2"/>
<path d="M165,448 L165,448 L165,449" stroke-width="2"/>
</svg>